<svg xmlns="http://www.w3.org/2000/svg" width="360.38" height="395.12" viewBox="-12.746 -10.602 18.019 19.756"><style>
	.line {
		stroke: #333;
		stroke-width: .09;
		fill: none;
		stroke-linejoin: round;
		stroke-linecap: round;
	}
	.station {
		stroke: none;
	}
	.transit {
		stroke: #555;
		stroke-width: .05;
		fill: #fff;
	}
</style><g><path class="line 2" style="stroke: #777;" d="M3.337 -3.735L2.641 -4.432"></path><path class="line 4" style="stroke: #777;" d="M3.236 -3.634L2.54 -4.331"></path><path class="line 5" style="stroke: #777;" d="M3.135 -3.533L2.439 -4.23"></path><path class="line 7" style="stroke: #777;" d="M3.034 -3.432L2.338 -4.129"></path><path class="line 8" style="stroke: #777;" d="M2.933 -3.331L2.237 -4.028"></path><path class="line 9" style="stroke: #777;" d="M2.832 -3.23L2.136 -3.927"></path><path class="line 2" style="stroke: #777;" d="M2.388 -4.536L1.692 -4.536"></path><path class="line 4" style="stroke: #777;" d="M2.388 -4.394L1.692 -4.394"></path><path class="line 5" style="stroke: #777;" d="M2.388 -4.251L1.692 -4.251"></path><path class="line 7" style="stroke: #777;" d="M2.388 -4.108L1.692 -4.108"></path><path class="line 8" style="stroke: #777;" d="M2.388 -3.965L1.692 -3.965"></path><path class="line 9" style="stroke: #777;" d="M2.388 -3.822L1.692 -3.822"></path><path class="line 2" style="stroke: #777;" d="M1.944 -3.927L0.949 -2.932"></path><path class="line 4" style="stroke: #777;" d="M1.843 -4.028L0.848 -3.033"></path><path class="line 5" style="stroke: #777;" d="M1.742 -4.129L0.747 -3.134"></path><path class="line 7" style="stroke: #777;" d="M1.641 -4.23L0.646 -3.235"></path><path class="line 8" style="stroke: #777;" d="M1.54 -4.331L0.545 -3.336"></path><path class="line 9" style="stroke: #777;" d="M1.439 -4.432L0.444 -3.437"></path><path class="line 2" style="stroke: #777;" d="M1.054 -3.184L1.054 -1.393"></path><path class="line 4" style="stroke: #777;" d="M0.911 -3.184L0.911 -1.393"></path><path class="line 5" style="stroke: #777;" d="M0.768 -3.184L0.768 -1.393"></path><path class="line 7" style="stroke: #777;" d="M0.625 -3.184L0.625 -1.393"></path><path class="line 8" style="stroke: #777;" d="M0.482 -3.184L0.482 -1.393"></path><path class="line 9" style="stroke: #777;" d="M0.339 -3.184L0.339 -1.393"></path><path class="line 2" style="stroke: #777;" d="M1.054 -1.393L1.054 -0.697"></path><path class="line 4" style="stroke: #777;" d="M0.911 -1.393L0.911 -0.697"></path><path class="line 5" style="stroke: #777;" d="M0.768 -1.393L0.768 -0.697"></path><path class="line 7" style="stroke: #777;" d="M0.625 -1.393L0.625 -0.697"></path><path class="line 8" style="stroke: #777;" d="M0.482 -1.393L0.482 -0.697"></path><path class="line 9" style="stroke: #777;" d="M0.339 -1.393L0.339 -0.697"></path><path class="line 2" style="stroke: #777;" d="M0.949 -0.444L0.253 0.253"></path><path class="line 4" style="stroke: #777;" d="M0.848 -0.545L0.152 0.152"></path><path class="line 5" style="stroke: #777;" d="M0.747 -0.646L0.051 0.051"></path><path class="line 7" style="stroke: #777;" d="M0.646 -0.747L-0.051 -0.051"></path><path class="line 8" style="stroke: #777;" d="M0.545 -0.848L-0.152 -0.152"></path><path class="line 9" style="stroke: #777;" d="M0.444 -0.949L-0.253 -0.253"></path><path class="line 2" style="stroke: #777;" d="M0.253 0.253L-0.444 0.949"></path><path class="line 4" style="stroke: #777;" d="M0.152 0.152L-0.545 0.848"></path><path class="line 5" style="stroke: #777;" d="M0.051 0.051L-0.646 0.747"></path><path class="line 7" style="stroke: #777;" d="M-0.051 -0.051L-0.747 0.646"></path><path class="line 8" style="stroke: #777;" d="M-0.152 -0.152L-0.848 0.545"></path><path class="line 9" style="stroke: #777;" d="M-0.253 -0.253L-0.949 0.444"></path><path class="line 2" style="stroke: #777;" d="M-0.444 0.949L-1.141 1.646"></path><path class="line 4" style="stroke: #777;" d="M-0.545 0.848L-1.242 1.545"></path><path class="line 5" style="stroke: #777;" d="M-0.646 0.747L-1.343 1.444"></path><path class="line 7" style="stroke: #777;" d="M-0.747 0.646L-1.444 1.343"></path><path class="line 8" style="stroke: #777;" d="M-0.848 0.545L-1.545 1.242"></path><path class="line 9" style="stroke: #777;" d="M-0.949 0.444L-1.646 1.141"></path><path class="line 2" style="stroke: #777;" d="M-1.393 1.036L-2.09 1.036"></path><path class="line 4" style="stroke: #777;" d="M-1.393 1.179L-2.09 1.179"></path><path class="line 5" style="stroke: #777;" d="M-1.393 1.322L-2.09 1.322"></path><path class="line 7" style="stroke: #777;" d="M-1.393 1.465L-2.09 1.465"></path><path class="line 8" style="stroke: #777;" d="M-1.393 1.607L-2.09 1.607"></path><path class="line 9" style="stroke: #777;" d="M-1.393 1.75L-2.09 1.75"></path><path class="line 2" style="stroke: #777;" d="M-2.09 1.036L-2.786 1.036"></path><path class="line 4" style="stroke: #777;" d="M-2.09 1.179L-2.786 1.179"></path><path class="line 5" style="stroke: #777;" d="M-2.09 1.322L-2.786 1.322"></path><path class="line 7" style="stroke: #777;" d="M-2.09 1.465L-2.786 1.465"></path><path class="line 8" style="stroke: #777;" d="M-2.09 1.607L-2.786 1.607"></path><path class="line 9" style="stroke: #777;" d="M-2.09 1.75L-2.786 1.75"></path><path class="line 2" style="stroke: #777;" d="M-2.786 1.036L-3.483 1.036"></path><path class="line 4" style="stroke: #777;" d="M-2.786 1.179L-3.483 1.179"></path><path class="line 5" style="stroke: #777;" d="M-2.786 1.322L-3.483 1.322"></path><path class="line 7" style="stroke: #777;" d="M-2.786 1.465L-3.483 1.465"></path><path class="line 8" style="stroke: #777;" d="M-2.786 1.607L-3.483 1.607"></path><path class="line 9" style="stroke: #777;" d="M-2.786 1.75L-3.483 1.75"></path><path class="line 2" style="stroke: #777;" d="M-3.483 1.036L-4.876 1.036"></path><path class="line 4" style="stroke: #777;" d="M-3.483 1.179L-4.876 1.179"></path><path class="line 5" style="stroke: #777;" d="M-3.483 1.322L-4.876 1.322"></path><path class="line 7" style="stroke: #777;" d="M-3.483 1.465L-4.876 1.465"></path><path class="line 8" style="stroke: #777;" d="M-3.483 1.607L-4.876 1.607"></path><path class="line 9" style="stroke: #777;" d="M-3.483 1.75L-4.876 1.75"></path><path class="line 2" style="stroke: #777;" d="M-4.876 1.036L-5.572 1.036"></path><path class="line 4" style="stroke: #777;" d="M-4.876 1.179L-5.572 1.179"></path><path class="line 5" style="stroke: #777;" d="M-4.876 1.322L-5.572 1.322"></path><path class="line 7" style="stroke: #777;" d="M-4.876 1.465L-5.572 1.465"></path><path class="line 8" style="stroke: #777;" d="M-4.876 1.607L-5.572 1.607"></path><path class="line 9" style="stroke: #777;" d="M-4.876 1.75L-5.572 1.75"></path><path class="line 2" style="stroke: #777;" d="M-5.572 1.036L-6.269 1.036"></path><path class="line 4" style="stroke: #777;" d="M-5.572 1.179L-6.269 1.179"></path><path class="line 5" style="stroke: #777;" d="M-5.572 1.322L-6.269 1.322"></path><path class="line 7" style="stroke: #777;" d="M-5.572 1.465L-6.269 1.465"></path><path class="line 8" style="stroke: #777;" d="M-5.572 1.607L-6.269 1.607"></path><path class="line 9" style="stroke: #777;" d="M-5.572 1.75L-6.269 1.75"></path><path class="line 2" style="stroke: #777;" d="M-6.016 1.646L-6.713 2.342"></path><path class="line 4" style="stroke: #777;" d="M-6.117 1.545L-6.814 2.241"></path><path class="line 5" style="stroke: #777;" d="M-6.218 1.444L-6.915 2.14"></path><path class="line 7" style="stroke: #777;" d="M-6.319 1.343L-7.016 2.039"></path><path class="line 8" style="stroke: #777;" d="M-6.42 1.242L-7.117 1.938"></path><path class="line 9" style="stroke: #777;" d="M-6.521 1.141L-7.218 1.837"></path><path class="line 2" style="stroke: #777;" d="M-6.713 2.342L-7.409 3.039"></path><path class="line 4" style="stroke: #777;" d="M-6.814 2.241L-7.51 2.938"></path><path class="line 5" style="stroke: #777;" d="M-6.915 2.14L-7.611 2.837"></path><path class="line 7" style="stroke: #777;" d="M-7.016 2.039L-7.712 2.736"></path><path class="line 8" style="stroke: #777;" d="M-7.117 1.938L-7.813 2.635"></path><path class="line 9" style="stroke: #777;" d="M-7.218 1.837L-7.915 2.534"></path><path class="line 2" style="stroke: #777;" d="M-7.409 3.039L-8.106 3.735"></path><path class="line 4" style="stroke: #777;" d="M-7.51 2.938L-8.207 3.634"></path><path class="line 5" style="stroke: #777;" d="M-7.611 2.837L-8.308 3.533"></path><path class="line 7" style="stroke: #777;" d="M-7.712 2.736L-8.409 3.432"></path><path class="line 8" style="stroke: #777;" d="M-7.813 2.635L-8.51 3.331"></path><path class="line 9" style="stroke: #777;" d="M-7.915 2.534L-8.611 3.23"></path><path class="line 2" style="stroke: #777;" d="M-8.359 3.126L-9.055 3.126"></path><path class="line 4" style="stroke: #777;" d="M-8.359 3.268L-9.055 3.268"></path><path class="line 5" style="stroke: #777;" d="M-8.359 3.411L-9.055 3.411"></path><path class="line 7" style="stroke: #777;" d="M-8.359 3.554L-9.055 3.554"></path><path class="line 8" style="stroke: #777;" d="M-8.359 3.697L-9.055 3.697"></path><path class="line 9" style="stroke: #777;" d="M-8.359 3.84L-9.055 3.84"></path><path class="line 2" style="stroke: #777;" d="M-8.803 3.23L-9.499 2.534"></path><path class="line 4" style="stroke: #777;" d="M-8.904 3.331L-9.6 2.635"></path><path class="line 5" style="stroke: #777;" d="M-9.005 3.432L-9.701 2.736"></path><path class="line 7" style="stroke: #777;" d="M-9.106 3.533L-9.802 2.837"></path><path class="line 8" style="stroke: #777;" d="M-9.207 3.634L-9.903 2.938"></path><path class="line 9" style="stroke: #777;" d="M-9.308 3.735L-10.004 3.039"></path><path class="line 2" style="stroke: #777;" d="M-9.499 2.534L-10.196 1.837"></path><path class="line 4" style="stroke: #777;" d="M-9.6 2.635L-10.297 1.938"></path><path class="line 5" style="stroke: #777;" d="M-9.701 2.736L-10.398 2.039"></path><path class="line 7" style="stroke: #777;" d="M-9.802 2.837L-10.499 2.14"></path><path class="line 8" style="stroke: #777;" d="M-9.903 2.938L-10.6 2.241"></path><path class="line 9" style="stroke: #777;" d="M-10.004 3.039L-10.701 2.342"></path><path class="line 2" style="stroke: #777;" d="M-10.196 1.837L-10.892 1.141"></path><path class="line 4" style="stroke: #777;" d="M-10.297 1.938L-10.993 1.242"></path><path class="line 5" style="stroke: #777;" d="M-10.398 2.039L-11.094 1.343"></path><path class="line 7" style="stroke: #777;" d="M-10.499 2.14L-11.195 1.444"></path><path class="line 8" style="stroke: #777;" d="M-10.6 2.241L-11.296 1.545"></path><path class="line 9" style="stroke: #777;" d="M-10.701 2.342L-11.397 1.646"></path><path class="line 2" style="stroke: #777;" d="M-10.892 1.141L-11.589 0.444"></path><path class="line 4" style="stroke: #777;" d="M-10.993 1.242L-11.69 0.545"></path><path class="line 5" style="stroke: #777;" d="M-11.094 1.343L-11.791 0.646"></path><path class="line 7" style="stroke: #777;" d="M-11.195 1.444L-11.892 0.747"></path><path class="line 8" style="stroke: #777;" d="M-11.296 1.545L-11.993 0.848"></path><path class="line 9" style="stroke: #777;" d="M-11.397 1.646L-12.094 0.949"></path><path class="line 2" style="stroke: #777;" d="M-4.59 -9.752L-4.59 -9.055"></path><path class="line 5" style="stroke: #777;" d="M-4.733 -9.752L-4.733 -9.055"></path><path class="line 6" style="stroke: #777;" d="M-4.876 -9.752L-4.876 -9.055"></path><path class="line 7" style="stroke: #777;" d="M-5.019 -9.752L-5.019 -9.055"></path><path class="line 8" style="stroke: #777;" d="M-5.162 -9.752L-5.162 -9.055"></path><path class="line 2" style="stroke: #777;" d="M-4.59 -9.055L-4.59 -8.359"></path><path class="line 5" style="stroke: #777;" d="M-4.733 -9.055L-4.733 -8.359"></path><path class="line 6" style="stroke: #777;" d="M-4.876 -9.055L-4.876 -8.359"></path><path class="line 7" style="stroke: #777;" d="M-5.019 -9.055L-5.019 -8.359"></path><path class="line 8" style="stroke: #777;" d="M-5.162 -9.055L-5.162 -8.359"></path><path class="line 2" style="stroke: #777;" d="M-4.59 -8.359L-4.59 -7.662"></path><path class="line 5" style="stroke: #777;" d="M-4.733 -8.359L-4.733 -7.662"></path><path class="line 6" style="stroke: #777;" d="M-4.876 -8.359L-4.876 -7.662"></path><path class="line 7" style="stroke: #777;" d="M-5.019 -8.359L-5.019 -7.662"></path><path class="line 8" style="stroke: #777;" d="M-5.162 -8.359L-5.162 -7.662"></path><path class="line 2" style="stroke: #777;" d="M-4.59 -7.662L-4.59 -6.965"></path><path class="line 5" style="stroke: #777;" d="M-4.733 -7.662L-4.733 -6.965"></path><path class="line 6" style="stroke: #777;" d="M-4.876 -7.662L-4.876 -6.965"></path><path class="line 7" style="stroke: #777;" d="M-5.019 -7.662L-5.019 -6.965"></path><path class="line 8" style="stroke: #777;" d="M-5.162 -7.662L-5.162 -6.965"></path><path class="line 2" style="stroke: #777;" d="M-4.59 -6.965L-4.59 -6.269"></path><path class="line 5" style="stroke: #777;" d="M-4.733 -6.965L-4.733 -6.269"></path><path class="line 6" style="stroke: #777;" d="M-4.876 -6.965L-4.876 -6.269"></path><path class="line 7" style="stroke: #777;" d="M-5.019 -6.965L-5.019 -6.269"></path><path class="line 8" style="stroke: #777;" d="M-5.162 -6.965L-5.162 -6.269"></path><path class="line 2" style="stroke: #777;" d="M-4.59 -6.269L-4.59 -5.572"></path><path class="line 5" style="stroke: #777;" d="M-4.733 -6.269L-4.733 -5.572"></path><path class="line 6" style="stroke: #777;" d="M-4.876 -6.269L-4.876 -5.572"></path><path class="line 7" style="stroke: #777;" d="M-5.019 -6.269L-5.019 -5.572"></path><path class="line 8" style="stroke: #777;" d="M-5.162 -6.269L-5.162 -5.572"></path><path class="line 2" style="stroke: #777;" d="M-4.59 -5.572L-4.59 -4.876"></path><path class="line 5" style="stroke: #777;" d="M-4.733 -5.572L-4.733 -4.876"></path><path class="line 6" style="stroke: #777;" d="M-4.876 -5.572L-4.876 -4.876"></path><path class="line 7" style="stroke: #777;" d="M-5.019 -5.572L-5.019 -4.876"></path><path class="line 8" style="stroke: #777;" d="M-5.162 -5.572L-5.162 -4.876"></path><path class="line 2" style="stroke: #777;" d="M-4.59 -4.876L-4.59 -2.786"></path><path class="line 5" style="stroke: #777;" d="M-4.733 -4.876L-4.733 -2.786"></path><path class="line 6" style="stroke: #777;" d="M-4.876 -4.876L-4.876 -2.786"></path><path class="line 7" style="stroke: #777;" d="M-5.019 -4.876L-5.019 -2.786"></path><path class="line 8" style="stroke: #777;" d="M-5.162 -4.876L-5.162 -2.786"></path><path class="line 2" style="stroke: #777;" d="M-4.59 -2.786L-4.59 -2.09"></path><path class="line 5" style="stroke: #777;" d="M-4.733 -2.786L-4.733 -2.09"></path><path class="line 6" style="stroke: #777;" d="M-4.876 -2.786L-4.876 -2.09"></path><path class="line 7" style="stroke: #777;" d="M-5.019 -2.786L-5.019 -2.09"></path><path class="line 8" style="stroke: #777;" d="M-5.162 -2.786L-5.162 -2.09"></path><path class="line 2" style="stroke: #777;" d="M-4.59 -2.09L-4.59 -1.393"></path><path class="line 5" style="stroke: #777;" d="M-4.733 -2.09L-4.733 -1.393"></path><path class="line 6" style="stroke: #777;" d="M-4.876 -2.09L-4.876 -1.393"></path><path class="line 7" style="stroke: #777;" d="M-5.019 -2.09L-5.019 -1.393"></path><path class="line 8" style="stroke: #777;" d="M-5.162 -2.09L-5.162 -1.393"></path><path class="line 2" style="stroke: #777;" d="M-4.59 -1.393L-4.59 -0.697"></path><path class="line 5" style="stroke: #777;" d="M-4.733 -1.393L-4.733 -0.697"></path><path class="line 6" style="stroke: #777;" d="M-4.876 -1.393L-4.876 -0.697"></path><path class="line 7" style="stroke: #777;" d="M-5.019 -1.393L-5.019 -0.697"></path><path class="line 8" style="stroke: #777;" d="M-5.162 -1.393L-5.162 -0.697"></path><path class="line 2" style="stroke: #777;" d="M-4.674 -0.899L-3.977 -0.202"></path><path class="line 5" style="stroke: #777;" d="M-4.775 -0.798L-4.078 -0.101"></path><path class="line 6" style="stroke: #777;" d="M-4.876 -0.697L-4.179 0"></path><path class="line 7" style="stroke: #777;" d="M-4.977 -0.596L-4.28 0.101"></path><path class="line 8" style="stroke: #777;" d="M-5.078 -0.495L-4.381 0.202"></path><path class="line 2" style="stroke: #777;" d="M-3.894 0L-3.894 2.09"></path><path class="line 5" style="stroke: #777;" d="M-4.036 0L-4.036 2.09"></path><path class="line 6" style="stroke: #777;" d="M-4.179 0L-4.179 2.09"></path><path class="line 7" style="stroke: #777;" d="M-4.322 0L-4.322 2.09"></path><path class="line 8" style="stroke: #777;" d="M-4.465 0L-4.465 2.09"></path><path class="line 2" style="stroke: #777;" d="M-3.894 2.09L-3.894 2.786"></path><path class="line 5" style="stroke: #777;" d="M-4.036 2.09L-4.036 2.786"></path><path class="line 6" style="stroke: #777;" d="M-4.179 2.09L-4.179 2.786"></path><path class="line 7" style="stroke: #777;" d="M-4.322 2.09L-4.322 2.786"></path><path class="line 8" style="stroke: #777;" d="M-4.465 2.09L-4.465 2.786"></path><path class="line 2" style="stroke: #777;" d="M-3.894 2.786L-3.894 3.483"></path><path class="line 5" style="stroke: #777;" d="M-4.036 2.786L-4.036 3.483"></path><path class="line 6" style="stroke: #777;" d="M-4.179 2.786L-4.179 3.483"></path><path class="line 7" style="stroke: #777;" d="M-4.322 2.786L-4.322 3.483"></path><path class="line 8" style="stroke: #777;" d="M-4.465 2.786L-4.465 3.483"></path><path class="line 2" style="stroke: #777;" d="M-3.894 3.483L-3.894 4.179"></path><path class="line 5" style="stroke: #777;" d="M-4.036 3.483L-4.036 4.179"></path><path class="line 6" style="stroke: #777;" d="M-4.179 3.483L-4.179 4.179"></path><path class="line 7" style="stroke: #777;" d="M-4.322 3.483L-4.322 4.179"></path><path class="line 8" style="stroke: #777;" d="M-4.465 3.483L-4.465 4.179"></path><path class="line 2" style="stroke: #777;" d="M-3.894 4.179L-3.894 4.876"></path><path class="line 5" style="stroke: #777;" d="M-4.036 4.179L-4.036 4.876"></path><path class="line 6" style="stroke: #777;" d="M-4.179 4.179L-4.179 4.876"></path><path class="line 7" style="stroke: #777;" d="M-4.322 4.179L-4.322 4.876"></path><path class="line 8" style="stroke: #777;" d="M-4.465 4.179L-4.465 4.876"></path><path class="line 2" style="stroke: #777;" d="M-3.894 4.876L-3.894 5.572"></path><path class="line 5" style="stroke: #777;" d="M-4.036 4.876L-4.036 5.572"></path><path class="line 6" style="stroke: #777;" d="M-4.179 4.876L-4.179 5.572"></path><path class="line 7" style="stroke: #777;" d="M-4.322 4.876L-4.322 5.572"></path><path class="line 8" style="stroke: #777;" d="M-4.465 4.876L-4.465 5.572"></path><path class="line 2" style="stroke: #777;" d="M4.629 -4.028L3.933 -3.331"></path><path class="line 3" style="stroke: #777;" d="M4.528 -4.129L3.832 -3.432"></path><path class="line 6" style="stroke: #777;" d="M4.427 -4.23L3.731 -3.533"></path><path class="line 9" style="stroke: #777;" d="M4.326 -4.331L3.63 -3.634"></path><path class="line 2" style="stroke: #777;" d="M3.933 -3.331L3.236 -2.635"></path><path class="line 3" style="stroke: #777;" d="M3.832 -3.432L3.135 -2.736"></path><path class="line 6" style="stroke: #777;" d="M3.731 -3.533L3.034 -2.837"></path><path class="line 9" style="stroke: #777;" d="M3.63 -3.634L2.933 -2.938"></path><path class="line 2" style="stroke: #777;" d="M3.236 -2.635L2.54 -1.938"></path><path class="line 3" style="stroke: #777;" d="M3.135 -2.736L2.439 -2.039"></path><path class="line 6" style="stroke: #777;" d="M3.034 -2.837L2.338 -2.14"></path><path class="line 9" style="stroke: #777;" d="M2.933 -2.938L2.237 -2.241"></path><path class="line 2" style="stroke: #777;" d="M2.388 -2.304L1.393 -2.304"></path><path class="line 3" style="stroke: #777;" d="M2.388 -2.161L1.393 -2.161"></path><path class="line 6" style="stroke: #777;" d="M2.388 -2.018L1.393 -2.018"></path><path class="line 9" style="stroke: #777;" d="M2.388 -1.875L1.393 -1.875"></path><path class="line 2" style="stroke: #777;" d="M1.545 -2.241L0.301 -3.485"></path><path class="line 3" style="stroke: #777;" d="M1.444 -2.14L0.2 -3.384"></path><path class="line 6" style="stroke: #777;" d="M1.343 -2.039L0.099 -3.283"></path><path class="line 9" style="stroke: #777;" d="M1.242 -1.938L-0.002 -3.182"></path><path class="line 2" style="stroke: #777;" d="M0.301 -3.485L-0.545 -4.331"></path><path class="line 3" style="stroke: #777;" d="M0.2 -3.384L-0.646 -4.23"></path><path class="line 6" style="stroke: #777;" d="M0.099 -3.283L-0.747 -4.129"></path><path class="line 9" style="stroke: #777;" d="M-0.002 -3.182L-0.848 -4.028"></path><path class="line 2" style="stroke: #777;" d="M-0.697 -4.394L-1.741 -4.394"></path><path class="line 3" style="stroke: #777;" d="M-0.697 -4.251L-1.741 -4.251"></path><path class="line 6" style="stroke: #777;" d="M-0.697 -4.108L-1.741 -4.108"></path><path class="line 9" style="stroke: #777;" d="M-0.697 -3.965L-1.741 -3.965"></path><path class="line 2" style="stroke: #777;" d="M-1.741 -4.394L-2.786 -4.394"></path><path class="line 3" style="stroke: #777;" d="M-1.741 -4.251L-2.786 -4.251"></path><path class="line 6" style="stroke: #777;" d="M-1.741 -4.108L-2.786 -4.108"></path><path class="line 9" style="stroke: #777;" d="M-1.741 -3.965L-2.786 -3.965"></path><path class="line 2" style="stroke: #777;" d="M-2.786 -4.394L-4.179 -4.394"></path><path class="line 3" style="stroke: #777;" d="M-2.786 -4.251L-4.179 -4.251"></path><path class="line 6" style="stroke: #777;" d="M-2.786 -4.108L-4.179 -4.108"></path><path class="line 9" style="stroke: #777;" d="M-2.786 -3.965L-4.179 -3.965"></path><path class="line 2" style="stroke: #777;" d="M-4.028 -4.028L-5.421 -2.635"></path><path class="line 3" style="stroke: #777;" d="M-4.129 -4.129L-5.522 -2.736"></path><path class="line 6" style="stroke: #777;" d="M-4.23 -4.23L-5.623 -2.837"></path><path class="line 9" style="stroke: #777;" d="M-4.331 -4.331L-5.724 -2.938"></path><path class="line 2" style="stroke: #777;" d="M-5.421 -2.635L-6.814 -1.242"></path><path class="line 3" style="stroke: #777;" d="M-5.522 -2.736L-6.915 -1.343"></path><path class="line 6" style="stroke: #777;" d="M-5.623 -2.837L-7.016 -1.444"></path><path class="line 9" style="stroke: #777;" d="M-5.724 -2.938L-7.117 -1.545"></path><path class="line 2" style="stroke: #777;" d="M-6.814 -1.242L-8.207 0.152"></path><path class="line 3" style="stroke: #777;" d="M-6.915 -1.343L-8.308 0.051"></path><path class="line 6" style="stroke: #777;" d="M-7.016 -1.444L-8.409 -0.051"></path><path class="line 9" style="stroke: #777;" d="M-7.117 -1.545L-8.51 -0.152"></path><path class="line 2" style="stroke: #777;" d="M-8.144 0L-8.144 0.697"></path><path class="line 3" style="stroke: #777;" d="M-8.287 0L-8.287 0.697"></path><path class="line 6" style="stroke: #777;" d="M-8.43 0L-8.43 0.697"></path><path class="line 9" style="stroke: #777;" d="M-8.573 0L-8.573 0.697"></path><path class="line 2" style="stroke: #777;" d="M-8.144 0.697L-8.144 1.393"></path><path class="line 3" style="stroke: #777;" d="M-8.287 0.697L-8.287 1.393"></path><path class="line 6" style="stroke: #777;" d="M-8.43 0.697L-8.43 1.393"></path><path class="line 9" style="stroke: #777;" d="M-8.573 0.697L-8.573 1.393"></path><path class="line 2" style="stroke: #777;" d="M-8.207 1.242L-6.814 2.635"></path><path class="line 3" style="stroke: #777;" d="M-8.308 1.343L-6.915 2.736"></path><path class="line 6" style="stroke: #777;" d="M-8.409 1.444L-7.016 2.837"></path><path class="line 9" style="stroke: #777;" d="M-8.51 1.545L-7.117 2.938"></path><path class="line 2" style="stroke: #777;" d="M-6.751 2.786L-6.751 3.483"></path><path class="line 3" style="stroke: #777;" d="M-6.894 2.786L-6.894 3.483"></path><path class="line 6" style="stroke: #777;" d="M-7.037 2.786L-7.037 3.483"></path><path class="line 9" style="stroke: #777;" d="M-7.18 2.786L-7.18 3.483"></path><path class="line 2" style="stroke: #777;" d="M-6.751 3.483L-6.751 4.179"></path><path class="line 3" style="stroke: #777;" d="M-6.894 3.483L-6.894 4.179"></path><path class="line 6" style="stroke: #777;" d="M-7.037 3.483L-7.037 4.179"></path><path class="line 9" style="stroke: #777;" d="M-7.18 3.483L-7.18 4.179"></path><path class="line 2" style="stroke: #777;" d="M-6.751 4.179L-6.751 4.876"></path><path class="line 3" style="stroke: #777;" d="M-6.894 4.179L-6.894 4.876"></path><path class="line 6" style="stroke: #777;" d="M-7.037 4.179L-7.037 4.876"></path><path class="line 9" style="stroke: #777;" d="M-7.18 4.179L-7.18 4.876"></path><path class="line 2" style="stroke: #777;" d="M-6.751 4.876L-6.751 5.572"></path><path class="line 3" style="stroke: #777;" d="M-6.894 4.876L-6.894 5.572"></path><path class="line 6" style="stroke: #777;" d="M-7.037 4.876L-7.037 5.572"></path><path class="line 9" style="stroke: #777;" d="M-7.18 4.876L-7.18 5.572"></path><path class="line 2" style="stroke: #777;" d="M-6.814 5.724L-7.51 6.42"></path><path class="line 3" style="stroke: #777;" d="M-6.915 5.623L-7.611 6.319"></path><path class="line 6" style="stroke: #777;" d="M-7.016 5.522L-7.712 6.218"></path><path class="line 9" style="stroke: #777;" d="M-7.117 5.421L-7.813 6.117"></path><path class="line 2" style="stroke: #777;" d="M-7.51 6.42L-8.207 7.117"></path><path class="line 3" style="stroke: #777;" d="M-7.611 6.319L-8.308 7.016"></path><path class="line 6" style="stroke: #777;" d="M-7.712 6.218L-8.409 6.915"></path><path class="line 9" style="stroke: #777;" d="M-7.813 6.117L-8.51 6.814"></path><path class="line 2" style="stroke: #777;" d="M-8.207 7.117L-8.904 7.813"></path><path class="line 3" style="stroke: #777;" d="M-8.308 7.016L-9.005 7.712"></path><path class="line 6" style="stroke: #777;" d="M-8.409 6.915L-9.106 7.611"></path><path class="line 9" style="stroke: #777;" d="M-8.51 6.814L-9.207 7.51"></path><path class="line 2" style="stroke: #777;" d="M-8.904 7.813L-9.6 8.51"></path><path class="line 3" style="stroke: #777;" d="M-9.005 7.712L-9.701 8.409"></path><path class="line 6" style="stroke: #777;" d="M-9.106 7.611L-9.802 8.308"></path><path class="line 9" style="stroke: #777;" d="M-9.207 7.51L-9.903 8.207"></path><circle class="station transit" data-id="2803078691" data-label="Wanjiali Square" r="0.405" fill="#333"></circle><circle class="station transit" data-id="2803078692" data-label="Wuyi Square" cx="-4.876" cy="1.393" r="0.405" fill="#333"></circle><circle class="station transit" data-id="2803078693" data-label="Renmin East Road" cx="0.697" cy="-0.697" r="0.405" fill="#333"></circle><circle class="station transit" data-id="2803078694" data-label="Shawan Park" cx="1.393" cy="-2.09" r="0.29500000000000004" fill="#333"></circle><circle class="station transit" data-id="2803078696" data-label="Wangchengpo" cx="-9.055" cy="3.483" r="0.405" fill="#333"></circle><circle class="station transit" data-id="2803078697" data-label="Duhua Road" cx="1.692" cy="-4.179" r="0.405" fill="#333"></circle><circle class="station transit" data-id="2803078698" data-label="Juzizhou" cx="-6.269" cy="1.393" r="0.405" fill="#333"></circle><circle class="station transit" data-id="2803078699" data-label="Xiangjiang Middle Road" cx="-5.572" cy="1.393" r="0.405" fill="#333"></circle><circle class="station transit" data-id="2803078700" data-label="Yingwanzhen" cx="-6.965" cy="2.09" r="0.405" fill="#333"></circle><circle class="station transit" data-id="2803078901" data-label="Furong Square" cx="-3.483" cy="1.393" r="0.405" fill="#333"></circle><circle class="station transit" data-id="2803078902" data-label="Yuanjialing" cx="-2.09" cy="1.393" r="0.405" fill="#333"></circle><circle class="station transit" data-id="2803078903" data-label="Xihu Park" cx="-7.662" cy="2.786" r="0.405" fill="#333"></circle><circle class="station transit" data-id="2803078904" data-label="Yinbing Road" cx="-2.786" cy="1.393" r="0.405" fill="#333"></circle><circle class="station transit" data-id="2803078905" data-label="Jinxing Road" cx="-8.359" cy="3.483" r="0.405" fill="#333"></circle><circle class="station transit" data-id="2803078906" data-label="Jintai Square" cx="-0.697" cy="0.697" r="0.405" fill="#333"></circle><circle class="station transit" data-id="2803078907" data-label="Changsha Avenue" cx="0.697" cy="-1.393" r="0.405" fill="#333"></circle><circle class="station transit" data-id="2803078908" data-label="Railway Station" cx="-1.393" cy="1.393" r="0.405" fill="#333"></circle><circle class="station transit" data-id="3410043447" data-label="Shangshuangtang" cx="-4.876" cy="-9.752" r="0.35" fill="#333"></circle><circle class="station transit" data-id="3755294121" data-label="Houjiatang" cx="-4.876" cy="-1.393" r="0.35" fill="#333"></circle><circle class="station transit" data-id="3755294122" data-label="Nanmenkou" cx="-4.876" cy="-0.697" r="0.35" fill="#333"></circle><circle class="station transit" data-id="3755298846" data-label="Beichen Delta" cx="-4.179" cy="4.179" r="0.35" fill="#333"></circle><circle class="station transit" data-id="3755298847" data-label="Peiyuanqiao" cx="-4.179" cy="2.09" r="0.35" fill="#333"></circle><circle class="station transit" data-id="3755298848" data-label="Kaifu District Government" cx="-4.179" cy="5.572" r="0.35" fill="#333"></circle><circle class="station transit" data-id="3755298849" data-label="Kaifu Temple" cx="-4.179" cy="3.483" r="0.35" fill="#333"></circle><circle class="station transit" data-id="3755298850" data-label="Wenchangge" cx="-4.179" cy="2.786" r="0.35" fill="#333"></circle><circle class="station transit" data-id="3755298865" data-label="Machang" cx="-4.179" cy="4.876" r="0.35" fill="#333"></circle><circle class="station transit" data-id="3755301827" data-label="Huangxing Square" cx="-4.179" r="0.35" fill="#333"></circle><circle class="station transit" data-id="3755306217" data-label="Zhongxin Square" cx="-4.876" cy="-9.055" r="0.35" fill="#333"></circle><circle class="station transit" data-id="3755306218" data-label="Nanhu Road" cx="-4.876" cy="-2.09" r="0.35" fill="#333"></circle><circle class="station transit" data-id="3755306219" data-label="Youyi Road" cx="-4.876" cy="-6.269" r="0.35" fill="#333"></circle><circle class="station transit" data-id="3755306220" data-label="Datuo" cx="-4.876" cy="-8.359" r="0.35" fill="#333"></circle><circle class="station transit" data-id="3755306221" data-label="Guihuaping" cx="-4.876" cy="-7.662" r="0.35" fill="#333"></circle><circle class="station transit" data-id="3755306222" data-label="Tujiachong" cx="-4.876" cy="-4.876" r="0.35" fill="#333"></circle><circle class="station transit" data-id="3755306223" data-label="Provincial Government" cx="-4.876" cy="-6.965" r="0.35" fill="#333"></circle><circle class="station transit" data-id="3755306648" data-label="Railway Campus" cx="-4.876" cy="-5.572" r="0.35" fill="#333"></circle><circle class="station transit" data-id="3755306649" data-label="Huangtuling" cx="-4.179" cy="-4.179" r="0.29500000000000004" fill="#333"></circle><circle class="station transit" data-id="4045274476" data-label="East Meixi Lake" cx="-9.752" cy="2.786" r="0.405" fill="#333"></circle><circle class="station transit" data-id="4045274477" data-label="West Meixi Lake" cx="-11.841" cy="0.697" r="0.405" fill="#333"></circle><circle class="station transit" data-id="4045274478" data-label="Luyun Road" cx="-11.145" cy="1.393" r="0.405" fill="#333"></circle><circle class="station transit" data-id="4045274479" data-label="Culture and Arts Center" cx="-10.448" cy="2.09" r="0.405" fill="#333"></circle><circle class="station transit" data-id="6504718510" data-label="Guangda" cx="3.085" cy="-3.483" r="0.405" fill="#333"></circle><circle class="station transit" data-id="6504722355" data-label="Dujiaping" cx="4.478" cy="-4.179" r="0.29500000000000004" fill="#333"></circle><circle class="station transit" data-id="6504722362" data-label="South Railway Station" cx="2.388" cy="-4.179" r="0.405" fill="#333"></circle><circle class="station transit" data-id="6504722369" data-label="Pingyang" cx="3.085" cy="-2.786" r="0.29500000000000004" fill="#333"></circle><circle class="station transit" data-id="6504722379" data-label="Sutang" cx="2.388" cy="-2.09" r="0.29500000000000004" fill="#333"></circle><circle class="station transit" data-id="6504722382" data-label="Guitang" cx="0.149" cy="-3.333" r="0.29500000000000004" fill="#333"></circle><circle class="station transit" data-id="6504722387" data-label="Shumuling" cx="-0.697" cy="-4.179" r="0.29500000000000004" fill="#333"></circle><circle class="station transit" data-id="6504722394" data-label="Chigangling" cx="-1.741" cy="-4.179" r="0.29500000000000004" fill="#333"></circle><circle class="station transit" data-id="6504722406" data-label="Shazitang" cx="-2.786" cy="-4.179" r="0.29500000000000004" fill="#333"></circle><circle class="station transit" data-id="6504722427" data-label="Bishahu" cx="-5.572" cy="-2.786" r="0.29500000000000004" fill="#333"></circle><circle class="station transit" data-id="6504722436" data-label="Fubuhe" cx="-6.965" cy="-1.393" r="0.29500000000000004" fill="#333"></circle><circle class="station transit" data-id="6504722446" data-label="Hunan University" cx="-8.359" r="0.29500000000000004" fill="#333"></circle><circle class="station transit" data-id="6504722452" data-label="Hunan Normal University" cx="-8.359" cy="0.697" r="0.29500000000000004" fill="#333"></circle><circle class="station transit" data-id="6504722459" data-label="Wangyuehu" cx="-6.965" cy="2.786" r="0.29500000000000004" fill="#333"></circle><circle class="station transit" data-id="6504722467" data-label="Liugoulong" cx="-6.965" cy="3.483" r="0.29500000000000004" fill="#333"></circle><circle class="station transit" data-id="6504722472" data-label="Guanshaling" cx="-6.965" cy="4.179" r="0.29500000000000004" fill="#333"></circle><circle class="station transit" data-id="6504722585" data-label="Chazishan" cx="-6.965" cy="4.876" r="0.29500000000000004" fill="#333"></circle><circle class="station transit" data-id="6504722589" data-label="West Fuyuan Bridge" cx="-6.965" cy="5.572" r="0.29500000000000004" fill="#333"></circle><circle class="station transit" data-id="6504722597" data-label="Hanwangling Park" cx="-7.662" cy="6.269" r="0.29500000000000004" fill="#333"></circle><circle class="station transit" data-id="6504722603" data-label="Xiangjiang New Town" cx="-8.359" cy="6.965" r="0.29500000000000004" fill="#333"></circle><circle class="station transit" data-id="6504722607" data-label="West Yueliangdao" cx="-9.055" cy="7.662" r="0.29500000000000004" fill="#333"></circle><circle class="station transit" data-id="6504722612" data-label="Guanziling" cx="-9.752" cy="8.359" r="0.29500000000000004" fill="#333"></circle><circle class="station transit" data-id="6505534609" data-label="Yingwanzhen" cx="-8.359" cy="1.393" r="0.29500000000000004" fill="#333"></circle><circle class="station transit" data-id="6505534611" data-label="Shawan Park" cx="0.697" cy="-3.184" r="0.405" fill="#333"></circle><circle class="station transit" data-id="6505534612" data-label="Guangda" cx="3.781" cy="-3.483" r="0.29500000000000004" fill="#333"></circle><circle class="station transit" data-id="6505689116" data-label="Huangtuling" cx="-4.876" cy="-2.786" r="0.35" fill="#333"></circle><circle class="station transit" data-id="3410043447" data-label="Shangshuangtang" r="0.35" fill="#333"></circle><circle class="station transit" data-id="3755306217" data-label="Zhongxin Square" r="0.35" fill="#333"></circle><circle class="station transit" data-id="3755306220" data-label="Datuo" r="0.35" fill="#333"></circle><circle class="station transit" data-id="3755306221" data-label="Guihuaping" r="0.35" fill="#333"></circle><circle class="station transit" data-id="3755306223" data-label="Provincial Government" r="0.35" fill="#333"></circle><circle class="station transit" data-id="4045274477" data-label="West Meixi Lake" r="0.405" fill="#333"></circle><circle class="station transit" data-id="4045274478" data-label="Luyun Road" r="0.405" fill="#333"></circle><circle class="station transit" data-id="4045274479" data-label="Culture and Arts Center" r="0.405" fill="#333"></circle><circle class="station transit" data-id="4045274476" data-label="East Meixi Lake" r="0.405" fill="#333"></circle><circle class="station transit" data-id="2803078905" data-label="Jinxing Road" r="0.405" fill="#333"></circle><circle class="station transit" data-id="2803078696" data-label="Wangchengpo" r="0.405" fill="#333"></circle><circle class="station transit" data-id="3755306219" data-label="Youyi Road" r="0.35" fill="#333"></circle><circle class="station transit" data-id="3755306648" data-label="Railway Campus" r="0.35" fill="#333"></circle><circle class="station transit" data-id="6504722436" data-label="Fubuhe" r="0.29500000000000004" fill="#333"></circle><circle class="station transit" data-id="3755306222" data-label="Tujiachong" r="0.35" fill="#333"></circle><circle class="station transit" data-id="6504722427" data-label="Bishahu" r="0.29500000000000004" fill="#333"></circle><circle class="station transit" data-id="3755306649" data-label="Huangtuling" r="0.29500000000000004" fill="#333"></circle><circle class="station transit" data-id="6505689116" data-label="Huangtuling" r="0.35" fill="#333"></circle><circle class="station transit" data-id="3755306218" data-label="Nanhu Road" r="0.35" fill="#333"></circle><circle class="station transit" data-id="6504722406" data-label="Shazitang" r="0.29500000000000004" fill="#333"></circle><circle class="station transit" data-id="6504722394" data-label="Chigangling" r="0.29500000000000004" fill="#333"></circle><circle class="station transit" data-id="6504722387" data-label="Shumuling" r="0.29500000000000004" fill="#333"></circle><circle class="station transit" data-id="6504722382" data-label="Guitang" r="0.29500000000000004" fill="#333"></circle><circle class="station transit" data-id="6504722446" data-label="Hunan University" r="0.29500000000000004" fill="#333"></circle><circle class="station transit" data-id="6504722452" data-label="Hunan Normal University" r="0.29500000000000004" fill="#333"></circle><circle class="station transit" data-id="3755294121" data-label="Houjiatang" r="0.35" fill="#333"></circle><circle class="station transit" data-id="3755294122" data-label="Nanmenkou" r="0.35" fill="#333"></circle><circle class="station transit" data-id="2803078692" data-label="Wuyi Square" r="0.405" fill="#333"></circle><circle class="station transit" data-id="3755301827" data-label="Huangxing Square" r="0.35" fill="#333"></circle><circle class="station transit" data-id="2803078903" data-label="Xihu Park" r="0.405" fill="#333"></circle><circle class="station transit" data-id="2803078700" data-label="Yingwanzhen" r="0.405" fill="#333"></circle><circle class="station transit" data-id="6505534609" data-label="Yingwanzhen" r="0.29500000000000004" fill="#333"></circle><circle class="station transit" data-id="2803078698" data-label="Juzizhou" r="0.405" fill="#333"></circle><circle class="station transit" data-id="6504722459" data-label="Wangyuehu" r="0.29500000000000004" fill="#333"></circle><circle class="station transit" data-id="6504722467" data-label="Liugoulong" r="0.29500000000000004" fill="#333"></circle><circle class="station transit" data-id="2803078699" data-label="Xiangjiang Middle Road" r="0.405" fill="#333"></circle><circle class="station transit" data-id="2803078692" data-label="Wuyi Square" r="0.405" fill="#333"></circle><circle class="station transit" data-id="2803078901" data-label="Furong Square" r="0.405" fill="#333"></circle><circle class="station transit" data-id="3755298847" data-label="Peiyuanqiao" r="0.35" fill="#333"></circle><circle class="station transit" data-id="3755298850" data-label="Wenchangge" r="0.35" fill="#333"></circle><circle class="station transit" data-id="2803078906" data-label="Jintai Square" r="0.405" fill="#333"></circle><circle class="station transit" data-id="2803078693" data-label="Renmin East Road" r="0.405" fill="#333"></circle><circle class="station transit" data-id="2803078691" data-label="Wanjiali Square" r="0.405" fill="#333"></circle><circle class="station transit" data-id="2803078904" data-label="Yinbing Road" r="0.405" fill="#333"></circle><circle class="station transit" data-id="2803078902" data-label="Yuanjialing" r="0.405" fill="#333"></circle><circle class="station transit" data-id="2803078908" data-label="Railway Station" r="0.405" fill="#333"></circle><circle class="station transit" data-id="6504722603" data-label="Xiangjiang New Town" r="0.29500000000000004" fill="#333"></circle><circle class="station transit" data-id="6504722612" data-label="Guanziling" r="0.29500000000000004" fill="#333"></circle><circle class="station transit" data-id="6504722607" data-label="West Yueliangdao" r="0.29500000000000004" fill="#333"></circle><circle class="station transit" data-id="6504722472" data-label="Guanshaling" r="0.29500000000000004" fill="#333"></circle><circle class="station transit" data-id="6504722585" data-label="Chazishan" r="0.29500000000000004" fill="#333"></circle><circle class="station transit" data-id="3755298849" data-label="Kaifu Temple" r="0.35" fill="#333"></circle><circle class="station transit" data-id="3755298846" data-label="Beichen Delta" r="0.35" fill="#333"></circle><circle class="station transit" data-id="6504722589" data-label="West Fuyuan Bridge" r="0.29500000000000004" fill="#333"></circle><circle class="station transit" data-id="6504722597" data-label="Hanwangling Park" r="0.29500000000000004" fill="#333"></circle><circle class="station transit" data-id="3755298865" data-label="Machang" r="0.35" fill="#333"></circle><circle class="station transit" data-id="3755298848" data-label="Kaifu District Government" r="0.35" fill="#333"></circle><circle class="station transit" data-id="2803078697" data-label="Duhua Road" r="0.405" fill="#333"></circle><circle class="station transit" data-id="6504722362" data-label="South Railway Station" r="0.405" fill="#333"></circle><circle class="station transit" data-id="6504722362" data-label="South Railway Station" r="0.405" fill="#333"></circle><circle class="station transit" data-id="6504722369" data-label="Pingyang" r="0.29500000000000004" fill="#333"></circle><circle class="station transit" data-id="2803078694" data-label="Shawan Park" r="0.29500000000000004" fill="#333"></circle><circle class="station transit" data-id="6505534611" data-label="Shawan Park" r="0.405" fill="#333"></circle><circle class="station transit" data-id="6504722379" data-label="Sutang" r="0.29500000000000004" fill="#333"></circle><circle class="station transit" data-id="6504722355" data-label="Dujiaping" r="0.29500000000000004" fill="#333"></circle><circle class="station transit" data-id="6504718510" data-label="Guangda" r="0.405" fill="#333"></circle><circle class="station transit" data-id="6505534612" data-label="Guangda" r="0.29500000000000004" fill="#333"></circle><circle class="station transit" data-id="2803078907" data-label="Changsha Avenue" r="0.405" fill="#333"></circle></g></svg>